<svg xmlns="http://www.w3.org/2000/svg" version="1.1" xmlns:xlink="http://www.w3.org/1999/xlink" xmlns:svgjs="http://svgjs.dev/svgjs" width="1000" height="1000" viewBox="0 0 1000 1000"><rect width="1000" height="1000" fill="#5e1914"></rect><g transform="matrix(0.7,0,0,0.7,150.21234172383117,219.87700756936033)"><svg viewBox="0 0 308 247" data-background-color="#5e1914" preserveAspectRatio="xMidYMid meet" height="801" width="1000" xmlns="http://www.w3.org/2000/svg" xmlns:xlink="http://www.w3.org/1999/xlink"><g id="tight-bounds" transform="matrix(1,0,0,1,-0.0934302130817457,-0.10000155097556274)"><svg viewBox="0 0 308.1868421052631 247.19999999999996" height="247.19999999999996" width="308.1868421052631"><g><svg viewBox="0 0 308.1868421052631 247.19999999999996" height="247.19999999999996" width="308.1868421052631"><g><svg viewBox="0 0 308.1868421052631 247.19999999999996" height="247.19999999999996" width="308.1868421052631"><g id="textblocktransform"><svg viewBox="0 0 308.1868421052631 247.19999999999996" height="247.19999999999996" width="308.1868421052631" id="textblock"><g><svg viewBox="0 0 308.1868421052631 247.19999999999996" height="247.19999999999996" width="308.1868421052631"><g transform="matrix(1,0,0,1,0,0)"><svg width="308.1868421052631" viewBox="0.45000001788139343 -28.5 37.89999771118164 30.399999618530273" height="247.19999999999996" data-palette-color="#ed1703"><g class="undefined-text-0" data-fill-palette-color="primary" id="text-0"><path d="M13.55-2.9L13.55-2.9Q13.7-2.9 13.7-2.6 13.7-2.3 13-1.6L13-1.6 12.5-0.85Q11.15 1.2 10.53 1.55 9.9 1.9 9.53 1.9 9.15 1.9 8.38 1.73 7.6 1.55 7.58 1.35 7.55 1.15 7.55 0.5 7.55-0.15 8.5-2.63 9.45-5.1 10.7-7.5L10.7-7.5Q13-12 15.3-16.2L15.3-16.2Q15.75-17.05 15.75-17.53 15.75-18 15.6-18.25L15.6-18.25Q15.9-19.7 18.07-21.95 20.25-24.2 22.05-24.2L22.05-24.2Q22.85-24.2 24-23.58 25.15-22.95 25-21.95L25-21.95Q24.65-22.2 24.35-22.2L24.35-22.2Q22.25-22.2 19.1-18.1L19.1-18.1Q13.85-11.3 10.2-2.5L10.2-2.5Q9.8-1.45 9.8-1.07 9.8-0.7 9.8-0.6L9.8-0.6Q10-0.1 10.63-0.3 11.25-0.5 11.8-1.2L11.8-1.2Q13.1-2.9 13.55-2.9ZM32.6-24.45L32.6-24.45Q33-25.1 33.8-25.95L33.8-25.95Q31.6-26 27.2-26.35L27.2-26.35Q21.75-26.8 19.75-26.8 17.75-26.8 14.2-26.45L14.2-26.45Q9.45-25.8 6.03-23.83 2.6-21.85 1.95-18.85L1.95-18.85Q1.85-18.55 1.85-18.13 1.85-17.7 2.13-17.1 2.4-16.5 2.8-16.15 3.2-15.8 4.03-15.3 4.85-14.8 5.13-14.58 5.4-14.35 5.23-14.2 5.05-14.05 4.88-14.05 4.7-14.05 4.5-14.1L4.5-14.1Q2.8-14.6 1.63-15.98 0.45-17.35 0.45-18.28 0.45-19.2 0.7-19.85L0.7-19.85Q0.7-20.4 0.75-20.65L0.75-20.65Q1.5-24.2 5.3-26.15L5.3-26.15Q9.85-28.5 16.5-28.5L16.5-28.5Q20.55-28.5 27.13-27.6 33.7-26.7 34.45-26.7L34.45-26.7Q35.8-28.2 36.5-28.25L36.5-28.25Q36.75-28.3 37.2-28.3 37.65-28.3 38-27.98 38.35-27.65 38.35-27.3 38.35-26.95 38.05-26.6 37.75-26.25 36.83-25.58 35.9-24.9 35.35-24.35L35.35-24.35Q32.75-21.75 32.75-19.8L32.75-19.8Q32.75-18.95 33.1-18.43 33.45-17.9 33.05-17.68 32.65-17.45 32.2-18L32.2-18Q31.7-18.4 31.7-20.55 31.7-22.7 32.6-24.45Z" fill="#ed1703" data-fill-palette-color="primary"></path></g></svg></g></svg></g></svg></g></svg></g></svg></g><defs></defs></svg><rect width="308.1868421052631" height="247.19999999999996" fill="none" stroke="none" visibility="hidden"></rect></g></svg></g></svg>